<svg width="1440" height="674" viewBox="0 0 1440 674" fill="none" xmlns="http://www.w3.org/2000/svg">
<path d="M1439.5 0H0V673.8H1439.5V0Z" fill="white"/>
<path d="M831 0C501 0 179 80 0 132V623C0 623 413 678 719.8 673.5C1026.6 669 1439.6 623 1439.6 623V132C1329 78 1161 0 831 0Z" fill="url(#paint0_linear)"/>
<path fill-rule="evenodd" clip-rule="evenodd" d="M291 501.3C208.6 583.6 105.1 616.2 0 620V132C118.4 97.6 299.3 51 503.8 23.3C496.6 156.9 447.5 344.8 291 501.3Z" fill="#B60504"/>
<path fill-rule="evenodd" clip-rule="evenodd" d="M639.1 8.4C733.8 125.7 977.5 335.7 1321.5 380.8C1361.6 386.1 1401 389.1 1439.5 390.4V132C1329 78 1161 0 831 0C766.4 0 702.1 3.1 639.1 8.4Z" fill="#B60504"/>
<defs>
<linearGradient id="paint0_linear" x1="1768.1" y1="334.957" x2="226.527" y2="337.914" gradientUnits="userSpaceOnUse">
<stop stop-color="#B60504"/>
<stop offset="0.6562" stop-color="#C20606"/>
<stop offset="1" stop-color="#C90707"/>
</linearGradient>
</defs>
</svg>
