<svg width="1440" height="597" xmlns="http://www.w3.org/2000/svg">
 <defs>
  <linearGradient y2="0.533619" x2="0.15746" y1="0.527238" x1="1.228361" id="paint0_linear">
   <stop stop-color="#B60504"/>
   <stop stop-color="#C20606" offset="0.65625"/>
   <stop stop-color="#C90707" offset="1"/>
  </linearGradient>
 </defs>
 <g>
  <title>background</title>
  <rect fill="none" id="canvas_background" height="402" width="582" y="-1" x="-1"/>
 </g>
 <g>
  <title>Layer 1</title>
  <path id="svg_1" fill="url(#paint0_linear)" d="m1519,334.718c-75.666667,-88.906 -77.333333,-217.812 -79,-339.718l-1440,5c0,176.044 -370.9895,470.753 -3,453.132c367.9895,-17.621 299.93225,73.356 622.6355,111.2815c322.70325,37.9255 665.167,45.7995 834.1985,-46.0275c169.0315,-91.827 -9.222667,-118.778667 -8.834,-150.668z"/>
  <path id="svg_2" fill="#AE0706" d="m375.373,0l-378.373,0l0,428.747c186.398,-84.934 325.27,-241.952 378.373,-428.747z" clip-rule="evenodd" fill-rule="evenodd"/>
  <path id="svg_3" fill="#AE0706" d="m1440,98.7388l0,-98.7388l-480,0c26.016,86.7501 104.94,145.852 192.83,137.569l287.17,-38.8302z" clip-rule="evenodd" fill-rule="evenodd"/>
 </g>
</svg>