<svg width="252" height="22" viewBox="0 0 252 22" fill="none" xmlns="http://www.w3.org/2000/svg">
<g clip-path="url(#clip0)">
<path d="M41.5385 0H11.5781C11.5781 0 11.8302 0.440661 12.1425 0.528793C13.1671 0.815223 13.9232 1.87832 13.9232 2.74862L13.9123 15.9024C13.9123 16.2934 14.0109 16.7066 14.5917 16.7066L39.6372 16.7396C42.0097 16.7396 48.8697 15.6435 48.8697 8.41112C48.8697 2.16475 44.4096 0 41.5385 0ZM33.484 15.6765C33.347 15.6765 23.4242 15.6545 23.2269 15.6545C22.8434 15.6545 22.5749 15.5443 22.5749 14.9825L22.553 1.68553C22.553 1.04657 23.0516 1.10165 23.8351 1.10165C27.4788 1.10165 29.6376 1.10165 33.5443 1.10165C37.8016 1.10165 40.4481 4.08162 40.4481 8.65899C40.4426 12.4927 37.0784 15.6765 33.484 15.6765Z" fill="white"/>
<path d="M0 3.41513C0.158897 3.41513 7.82432 3.40412 8.24074 3.40962C10.2187 3.78969 11.4351 5.32099 11.4461 7.59039L11.4351 18.5188C11.4351 18.998 11.6707 19.2404 12.0817 19.2404L39.4175 19.2514C42.7598 19.2514 45.7131 18.5188 47.2582 15.8748C47.313 15.7757 47.4609 15.6875 47.4609 15.7812C47.4609 15.9409 47.45 21.1683 47.45 21.7907L0.706819 21.8127C0.602713 21.8127 0.542442 21.5924 0.657506 21.5208C1.53966 20.981 2.27387 20.5073 2.74509 19.5819C2.81632 19.4442 2.86015 19.2899 2.86015 19.1137C2.86015 14.4041 2.86563 10.0581 2.86563 5.65699C2.86563 4.74262 1.49035 4.14222 0.471212 3.97147C0.202731 3.9274 0.219169 3.62995 0 3.41513Z" fill="white"/>
<path d="M56.9893 21.3886V0.64447H57.981V20.4577H68.3477V21.3886H56.9893Z" fill="white"/>
<path d="M71.4102 11.033C71.4102 5.02904 75.2182 0.302948 81.2179 0.302948C87.1903 0.302948 91.0257 5.02904 91.0257 11.033C91.0257 17.0371 87.1903 21.7631 81.2179 21.7631C75.2127 21.7631 71.4102 17.0371 71.4102 11.033ZM89.9409 11.033C89.9409 5.34301 86.5054 1.23384 81.2179 1.23384C75.8648 1.23384 72.495 5.3375 72.495 11.033C72.495 16.6625 75.8648 20.8322 81.2179 20.8322C86.5054 20.8267 89.9409 16.6625 89.9409 11.033Z" fill="white"/>
<path d="M102.598 21.3886L93.9961 0.64447H95.1412L103.185 20.2374L111.228 0.64447H112.373L103.771 21.3886H102.598Z" fill="white"/>
<path d="M116.675 21.3886V0.64447H122.801C129.206 0.64447 133.074 5.49725 133.074 11.0331C133.074 16.6294 129.206 21.3886 122.801 21.3886H116.675ZM131.989 11.0331C131.989 5.83876 128.647 1.57537 122.801 1.57537H117.667V20.4577H122.801C128.647 20.4577 131.989 16.2879 131.989 11.0331Z" fill="white"/>
<path d="M152.689 21.3886L150.398 15.8197H138.887L136.596 21.3886H135.451L144.054 0.64447H145.232L153.834 21.3886H152.689ZM144.645 1.7957L139.259 14.8888H150.026L144.645 1.7957Z" fill="white"/>
<path d="M161.385 21.3886V1.57537H154.421V0.64447H169.363V1.57537H162.371V21.3886H161.385Z" fill="white"/>
<path d="M187.186 21.3886L184.896 15.8197H173.384L171.093 21.3886H169.948L178.551 0.64447H179.729L188.331 21.3886H187.186ZM179.142 1.7957L173.756 14.8888H184.523L179.142 1.7957Z" fill="white"/>
<path d="M192.786 21.6199V0.594879H201.975C206.364 0.594879 208.813 3.61892 208.813 7.18276C208.813 10.7466 206.336 13.7706 201.975 13.7706H196.457V21.6199H192.786ZM205.049 7.18276C205.049 5.16674 203.542 3.83925 201.471 3.83925H196.452V10.5208H201.471C203.542 10.5263 205.049 9.19878 205.049 7.18276Z" fill="white"/>
<path d="M223.804 21.6199L219.163 13.7706H215.525V21.6199H211.854V0.594879H221.042C225.179 0.594879 227.88 3.30494 227.88 7.18276C227.88 10.9339 225.436 12.9499 222.927 13.363L228.039 21.6199H223.804ZM224.116 7.18276C224.116 5.16674 222.609 3.83925 220.544 3.83925H215.525V10.5208H220.544C222.615 10.5263 224.116 9.19878 224.116 7.18276Z" fill="white"/>
<path d="M230.614 11.1212C230.614 4.84728 235.036 0.242371 241.31 0.242371C247.583 0.242371 252.005 4.84728 252.005 11.1212C252.005 17.3951 247.583 22 241.31 22C235.036 22 230.614 17.4006 230.614 11.1212ZM248.235 11.1212C248.235 6.76966 245.507 3.5253 241.304 3.5253C237.069 3.5253 234.373 6.76966 234.373 11.1212C234.373 15.4397 237.069 18.7171 241.304 18.7171C245.507 18.7226 248.235 15.4452 248.235 11.1212Z" fill="white"/>
</g>
<defs>
<clipPath id="clip0">
<rect width="252" height="22" fill="white"/>
</clipPath>
</defs>
</svg>
