<svg width="189" height="22" viewBox="0 0 189 22" fill="none" xmlns="http://www.w3.org/2000/svg">
<path d="M41.538 0H11.5777C11.5777 0 11.8297 0.440661 12.142 0.528793C13.1667 0.815223 13.9228 1.87832 13.9228 2.74862L13.9118 15.9024C13.9118 16.2934 14.0105 16.7066 14.5913 16.7066L39.6367 16.7396C42.0092 16.7396 48.8692 15.6435 48.8692 8.41112C48.8692 2.16475 44.4091 0 41.538 0ZM33.4836 15.6765C33.3466 15.6765 23.4237 15.6545 23.2265 15.6545C22.843 15.6545 22.5745 15.5443 22.5745 14.9825L22.5526 1.68553C22.5526 1.04657 23.0512 1.10165 23.8347 1.10165C27.4784 1.10165 29.6372 1.10165 33.5439 1.10165C37.8012 1.10165 40.4477 4.08162 40.4477 8.65899C40.4422 12.4927 37.078 15.6765 33.4836 15.6765Z" fill="white"/>
<path d="M0 3.41513C0.158897 3.41513 7.82432 3.40411 8.24074 3.40962C10.2187 3.78969 11.4351 5.32099 11.4461 7.59039L11.4351 18.5188C11.4351 18.998 11.6707 19.2404 12.0817 19.2404L39.4175 19.2514C42.7598 19.2514 45.7131 18.5188 47.2582 15.8748C47.313 15.7757 47.4609 15.6875 47.4609 15.7812C47.4609 15.9409 47.45 21.1683 47.45 21.7907L0.706819 21.8127C0.602713 21.8127 0.542442 21.5924 0.657506 21.5208C1.53966 20.981 2.27387 20.5073 2.74509 19.5819C2.81632 19.4442 2.86015 19.2899 2.86015 19.1137C2.86015 14.4041 2.86563 10.0581 2.86563 5.65699C2.86563 4.74262 1.49035 4.14222 0.471212 3.97146C0.202731 3.9274 0.219169 3.62995 0 3.41513Z" fill="white"/>
<path d="M56.9894 21.3886V0.644473H57.9811V20.4577H68.3478V21.3886H56.9894Z" fill="white"/>
<path d="M71.4104 11.0331C71.4104 5.02905 75.2185 0.302961 81.2182 0.302961C87.1906 0.302961 91.026 5.02905 91.026 11.0331C91.026 17.0371 87.1906 21.7632 81.2182 21.7632C75.213 21.7632 71.4104 17.0371 71.4104 11.0331ZM89.9411 11.0331C89.9411 5.34302 86.5057 1.23386 81.2182 1.23386C75.865 1.23386 72.4953 5.33751 72.4953 11.0331C72.4953 16.6625 75.865 20.8323 81.2182 20.8323C86.5057 20.8267 89.9411 16.6625 89.9411 11.0331Z" fill="white"/>
<path d="M102.598 21.3886L93.9959 0.644473H95.141L103.185 20.2374L111.228 0.644473H112.373L103.771 21.3886H102.598Z" fill="white"/>
<path d="M116.675 21.3886V0.644473H122.801C129.206 0.644473 133.074 5.49725 133.074 11.0331C133.074 16.6295 129.206 21.3886 122.801 21.3886H116.675ZM131.989 11.0331C131.989 5.83876 128.647 1.57537 122.801 1.57537H117.667V20.4577H122.801C128.647 20.4577 131.989 16.2879 131.989 11.0331Z" fill="white"/>
<path d="M152.689 21.3886L150.399 15.8197H138.887L136.597 21.3886H135.452L144.054 0.644473H145.232L153.834 21.3886H152.689ZM144.646 1.7957L139.26 14.8888H150.026L144.646 1.7957Z" fill="white"/>
<path d="M161.385 21.3886V1.57537H154.421V0.644473H169.362V1.57537H162.371V21.3886H161.385Z" fill="white"/>
<path d="M187.186 21.3886L184.896 15.8197H173.384L171.094 21.3886H169.949L178.551 0.644473H179.729L188.332 21.3886H187.186ZM179.143 1.7957L173.757 14.8888H184.523L179.143 1.7957Z" fill="white"/>
</svg>
