<svg width="1440" height="448" viewBox="0 0 1440 448" fill="none" xmlns="http://www.w3.org/2000/svg">
<path d="M697.5 35C305.5 35 165.167 11.6667 0 0V439.5C55 439.5 519 410 665 410C972.673 410 1133.82 417.432 1439.5 448V0C1259.83 11.6667 1099 35 697.5 35Z" fill="url(#paint0_linear)"/>
<path fill-rule="evenodd" clip-rule="evenodd" d="M2 0.0708008V348.537C54.7809 343.55 105.946 324.554 147.5 283C232.533 197.967 261.173 96.4762 266.607 22.0082C209.651 18.0656 161.088 13.6866 115.413 9.56803C76.6496 6.07274 39.9669 2.76503 2 0.0708008Z" fill="#B60504"/>
<path fill-rule="evenodd" clip-rule="evenodd" d="M709.122 34.9934C824.95 154.069 1047.62 316.758 1345.48 355.763C1377.29 359.928 1408.66 362.735 1439.5 364.34V0C1397.35 2.73699 1356.24 6.11608 1312.81 9.68535C1172.92 21.1828 1009.02 34.6537 709.122 34.9934Z" fill="#B60504"/>
<path fill-rule="evenodd" clip-rule="evenodd" d="M2 0.0708008V348.537C54.7809 343.55 105.946 324.554 147.5 283C232.533 197.967 261.173 96.4762 266.607 22.0082C209.651 18.0656 161.088 13.6866 115.413 9.56803C76.6496 6.07274 39.9669 2.76503 2 0.0708008Z" fill="#B60504"/>
<path fill-rule="evenodd" clip-rule="evenodd" d="M2 0.0708008V348.537C54.7809 343.55 105.946 324.554 147.5 283C232.533 197.967 261.173 96.4762 266.607 22.0082C209.651 18.0656 161.088 13.6866 115.413 9.56803C76.6496 6.07274 39.9669 2.76503 2 0.0708008Z" fill="#B60504"/>
<defs>
<linearGradient id="paint0_linear" x1="1768.23" y1="256.621" x2="226.669" y2="261.284" gradientUnits="userSpaceOnUse">
<stop stop-color="#B60504"/>
<stop offset="0.65625" stop-color="#C20606"/>
<stop offset="1" stop-color="#C90707"/>
</linearGradient>
</defs>
</svg>
