<svg width="25" height="23" viewBox="0 0 25 23" fill="none" xmlns="http://www.w3.org/2000/svg">
<path d="M25 12.4127C25 19.268 21.9771 23 15.0735 23C8.16997 23 0 19.268 0 12.4127C0 5.55735 8.16997 0 15.0735 0C21.9771 0 25 5.55735 25 12.4127Z" fill="#116707"/>
<path fill-rule="evenodd" clip-rule="evenodd" d="M18.6402 8.2318C19.0645 8.58537 19.1218 9.21593 18.7682 9.64021L13.7682 15.6402C13.5884 15.856 13.326 15.9863 13.0453 15.999C12.7646 16.0117 12.4916 15.9058 12.2929 15.7071L9.29289 12.7071C8.90237 12.3166 8.90237 11.6834 9.29289 11.2929C9.68342 10.9024 10.3166 10.9024 10.7071 11.2929L12.9328 13.5186L17.2318 8.35984C17.5853 7.93556 18.2159 7.87824 18.6402 8.2318Z" fill="white"/>
</svg>
